REM DIRINDEX 1\2\4,1\2\5,1\3\6,1\3\7,1\3\8
REM DIRNAME folder01,folder02,folder03,folder04,folder05,folder06,folder07,folder08
TITLE ""
FILE "LEVEL2-013-midashigo.mp3" MP3
  TRACK 01 AUDIO
    TITLE "0:"
    INDEX 01 00:00:00
  TRACK 02 AUDIO
    TITLE "6:cjc092_1384"
    INDEX 01 00:00:03
  TRACK 03 AUDIO
    TITLE "0:"
    INDEX 01 00:02:47
  TRACK 04 AUDIO
    TITLE "7:cjc092_1385"
    INDEX 01 00:03:25
  TRACK 05 AUDIO
    TITLE "8:cjc092_1386"
    INDEX 01 00:04:46
  TRACK 06 AUDIO
    TITLE "0:"
    INDEX 01 00:06:37
  TRACK 07 AUDIO
    TITLE "7:cjc092_1387"
    INDEX 01 00:06:69
  TRACK 08 AUDIO
    TITLE "8:cjc092_1388"
    INDEX 01 00:08:15
  TRACK 09 AUDIO
    TITLE "0:"
    INDEX 01 00:10:10
  TRACK 10 AUDIO
    TITLE "7:cjc092_1389"
    INDEX 01 00:10:41
  TRACK 11 AUDIO
    TITLE "8:cjc092_1390"
    INDEX 01 00:11:74
  TRACK 12 AUDIO
    TITLE "0:"
    INDEX 01 00:14:43
  TRACK 13 AUDIO
    TITLE "7:cjc092_1391"
    INDEX 01 00:15:01
  TRACK 14 AUDIO
    TITLE "8:cjc092_1392"
    INDEX 01 00:16:32
  TRACK 15 AUDIO
    TITLE "0:"
    INDEX 01 00:18:62
  TRACK 16 AUDIO
    TITLE "7:cjc092_1393"
    INDEX 01 00:19:22
  TRACK 17 AUDIO
    TITLE "8:cjc092_1394"
    INDEX 01 00:20:51
  TRACK 18 AUDIO
    TITLE "0:"
    INDEX 01 00:22:50
  TRACK 19 AUDIO
    TITLE "7:cjc092_1395"
    INDEX 01 00:23:08
  TRACK 20 AUDIO
    TITLE "8:cjc092_1396"
    INDEX 01 00:24:33
  TRACK 21 AUDIO
    TITLE "0:"
    INDEX 01 00:26:69
  TRACK 22 AUDIO
    TITLE "7:cjc092_1397"
    INDEX 01 00:27:32
  TRACK 23 AUDIO
    TITLE "8:cjc092_1398"
    INDEX 01 00:28:64
  TRACK 24 AUDIO
    TITLE "0:"
    INDEX 01 00:30:01
  TRACK 25 AUDIO
    TITLE "7:cjc092_1399"
    INDEX 01 00:30:30
  TRACK 26 AUDIO
    TITLE "8:cjc092_1400"
    INDEX 01 00:31:63
  TRACK 27 AUDIO
    TITLE "0:"
    INDEX 01 00:32:70
  TRACK 28 AUDIO
    TITLE "7:cjc092_1401"
    INDEX 01 00:33:34
  TRACK 29 AUDIO
    TITLE "8:cjc092_1402"
    INDEX 01 00:35:00
  TRACK 30 AUDIO
    TITLE "0:"
    INDEX 01 00:37:22
  TRACK 31 AUDIO
    TITLE "7:cjc092_1403"
    INDEX 01 00:37:57
  TRACK 32 AUDIO
    TITLE "8:cjc092_1404"
    INDEX 01 00:39:31
  TRACK 33 AUDIO
    TITLE "0:"
    INDEX 01 00:41:61
  TRACK 34 AUDIO
    TITLE "7:cjc092_1405"
    INDEX 01 00:42:23
  TRACK 35 AUDIO
    TITLE "8:cjc092_1406"
    INDEX 01 00:43:50
  TRACK 36 AUDIO
    TITLE "0:"
    INDEX 01 00:45:71
  TRACK 37 AUDIO
    TITLE "7:cjc092_1407"
    INDEX 01 00:46:29
  TRACK 38 AUDIO
    TITLE "8:cjc092_1408"
    INDEX 01 00:47:54
  TRACK 39 AUDIO
    TITLE "0:"
    INDEX 01 00:49:14
  TRACK 40 AUDIO
    TITLE "7:cjc092_1409"
    INDEX 01 00:49:49
  TRACK 41 AUDIO
    TITLE "8:cjc092_1410"
    INDEX 01 00:51:05
  TRACK 42 AUDIO
    TITLE "0:"
    INDEX 01 00:56:67
  TRACK 43 AUDIO
    TITLE "7:cjc092_1411"
    INDEX 01 00:57:29
  TRACK 44 AUDIO
    TITLE "8:cjc092_1412"
    INDEX 01 00:58:60
  TRACK 45 AUDIO
    TITLE "0:"
    INDEX 01 01:01:70
  TRACK 46 AUDIO
    TITLE "7:cjc092_1413"
    INDEX 01 01:02:24
  TRACK 47 AUDIO
    TITLE "8:cjc092_1414"
    INDEX 01 01:03:65
  TRACK 48 AUDIO
    TITLE "0:"
    INDEX 01 01:05:69
  TRACK 49 AUDIO
    TITLE "7:cjc092_1415"
    INDEX 01 01:06:32
  TRACK 50 AUDIO
    TITLE "8:cjc092_1416"
    INDEX 01 01:07:59
  TRACK 51 AUDIO
    TITLE "0:"
    INDEX 01 01:10:26
  TRACK 52 AUDIO
    TITLE "7:cjc092_1417"
    INDEX 01 01:10:59
  TRACK 53 AUDIO
    TITLE "8:cjc092_1418"
    INDEX 01 01:12:21
  TRACK 54 AUDIO
    TITLE "0:"
    INDEX 01 01:14:21
  TRACK 55 AUDIO
    TITLE "7:cjc092_1419"
    INDEX 01 01:14:51
  TRACK 56 AUDIO
    TITLE "8:cjc092_1420"
    INDEX 01 01:16:05
  TRACK 57 AUDIO
    TITLE "0:"
    INDEX 01 01:18:25
  TRACK 58 AUDIO
    TITLE "7:cjc092_1421"
    INDEX 01 01:18:62
  TRACK 59 AUDIO
    TITLE "8:cjc092_1422"
    INDEX 01 01:20:34
  TRACK 60 AUDIO
    TITLE "0:"
    INDEX 01 01:22:58
  TRACK 61 AUDIO
    TITLE "7:cjc092_1423"
    INDEX 01 01:23:18
  TRACK 62 AUDIO
    TITLE "8:cjc092_1424"
    INDEX 01 01:24:71
  TRACK 63 AUDIO
    TITLE "0:"
    INDEX 01 01:26:07
  TRACK 64 AUDIO
    TITLE "7:cjc092_1425"
    INDEX 01 01:26:44
  TRACK 65 AUDIO
    TITLE "8:cjc092_1426"
    INDEX 01 01:28:20
  TRACK 66 AUDIO
    TITLE "0:"
    INDEX 01 01:29:43
